<?xml version="1.0" encoding="UTF-8"?>
<svg version="1.1" viewBox="0 0 2048 522" width="1280" height="1280" xmlns="http://www.w3.org/2000/svg">
<path transform="translate(125,119)" d="m0 0h321l7 2 1 3v213h27l5 2 5 8v12l-4 11-5 8-5 6-8 5-5 1h-388l-8-7-7-8-7-14-1-8 1-8 5-5 4-3h27l-1-208 3-7 2-2zm-18 16v202h330v-202zm0 221-36 1 2 6 9 11 170 1h58l152-1 6-5 5-9v-3l-2-1h-149l-6 5-6 3h-72l-13-7-4-1z" fill="#6F30D3"/>
<path transform="translate(1812,188)" d="m0 0h48l4 5 8 16 13 23 10 18 8 13v2l3-3 9-16 10-17 12-22 8-15 2-4h48l1 1v136h-45l-1-1-1-47-9 16-13 23-5 8-2 1h-33l-6-9-11-20-12-21-13-22-2-4v-27h2l10 19 9 15 10 17 15 26 5 9 1 1h18l12-20 16-27 10-18 9-16 4-6 2 3v85l16 1v-108l-26 1-8 16-11 18-11 19-15 26-6 11-5-5-15-27-14-24-14-26-6-8-26-1 1 107h16l1-27 3 3 8 16 3 7 1 6v10h-45l-1-4z" fill="#7032D3"/>
<path transform="translate(765,188)" d="m0 0h148v46h-104l1 14 78 1v15l-1 1h-92l-1-1v-45l105-1v-14l-119-1v107h119l1-15h-106v-15l2-1h117l1 3v43h-149z" fill="#6F30D3"/>
<path transform="translate(1464,188)" d="m0 0h112l14 3 10 6 8 10 3 6 1 5v18l-4 10-6 8-8 6-10 3-12 2h-93v45h15l-1-30 41-1h19l8 16 8 14 5 1h13l-4-8-12-20 1-3 15 1 5 6 13 24 9 14v1h-54l-8-16-7-13-36-1v30h-45v-77h107l13-1 8-5 5-10 1-3v-8l-5-9-7-6-6-2-101-1v16h98l5 2 1 7-4 5-5 1h-110z" fill="#6F31D3"/>
<path transform="translate(595,188)" d="m0 0h84l14 2 13 5 12 7 9 8 9 13 5 12 3 10v24l-4 13-7 13-9 10-7 7-12 7-11 4-12 2h-86l-1-1v-105h86l12 3 9 7 6 7 4 10 2 7v9l-4 12-6 9-7 6-9 4-12 2h-50l-1-1v-47h16v33l28-1 13-1 9-4 5-5 2-5 1-12-3-8-7-6-7-3-73-1v76l74-1 12-3 12-6 10-9 6-10 3-8 2-12v-11l-2-12-7-13-7-8-10-7-8-4-10-2-88-1-1-2z" fill="#7032D3"/>
<path transform="translate(1138,188)" d="m0 0h149v45l-1 1h-101l-1 15h76v15l-1 1h-90l-1-1v-45l103-1v-14l-119-1v107h16v-30h16v45h-45l-1-1z" fill="#7031D3"/>
<path transform="translate(1637,188)" d="m0 0h42l2 3 1 69 5 10 10 7 7 2h12l8-3 6-4 6-9 2-6 1-50 1-19h11l2 1v65l-3 16-8 12-10 7-8 4-16 2-12-2-12-6-6-5-6-9-6-15v-55h-15l1 56 2 11 7 14 9 11 10 7 12 5 9 2h18l18-6 11-7 9-9 6-10 4-13 1-48 1-28h15v70l-2 11-4 12-7 12-9 10-10 9-12 7-13 4-6 1h-24l-13-3-17-9-12-11-8-10-7-14-3-8z" fill="#7032D3"/>
<path transform="translate(942,188)" d="m0 0h51l4 4 10 18 12 20 1 6-6 11-4-2-15-26-7-11-4-5-15 1 15 27 16 27 11 19v2l4-4 10-18 10-17 14-24 11-20 6-8h52l-8 15-11 18-13 23-9 15-28 49-10 17-5 1-11-1-1-2 12-20 13-23 12-21 17-29 8-14 6-13-16 1-8 13-15 26-13 23-10 17-12 21-2 5-3-1-12-21-17-29-15-26-14-24-8-14-3-4z" fill="#7133D3"/>
<path transform="translate(1370,182)" d="m0 0h9l14 2 17 7 10 7 10 9 9 14 7 16 1 4v27l-4 16-7 14-7 9-7 7-14 9-12 5-14 3h-19l-16-4-15-8-12-11-7-8-8-14-5-13-1-22 2-13 5-13 6-11 12-13 9-7 12-7 9-3zm-6 15-15 5-13 8-11 11-6 10-4 14v24l4 13 6 10 11 12 11 7 13 4 5 1h16l16-4 12-7 10-9 7-9 5-12 2-12v-15l-2-12-8-14-9-10-11-8-12-5-10-2z" fill="#7235D4"/>
<path transform="translate(1367,213)" d="m0 0h14l10 3 10 6 8 8 5 10 4 12v9l-4 14-7 11-11 9-10 4-6 1h-13l-13-4-9-6-7-7-5-10-3-12-1-7 4-14 5-9 8-9 10-6zm3 14-10 3-10 9-5 10-1 3v12l5 10 7 7 9 4 4 1h10l9-3 9-8 5-9 1-6v-11l-3-7-7-8-8-5-8-2z" fill="#7133D3"/>
<path transform="translate(291,184)" d="m0 0 8 1 4 2v9l-11 23-40 80-7 10-4 2-7-5-3-6 11-23 45-90z" fill="#7133D3"/>
<path transform="translate(316,198)" d="m0 0 6 1 9 6 30 30 5 7v6l-6 8-14 15-8 8-8 7-6 5-9 1-3-2-1-9 6-8 27-27-6-7-8-7-11-11-7-9-2-4 1-4z" fill="#7336D4"/>
<path transform="translate(214,198)" d="m0 0 5 1 7 6-1 5-7 9-26 26 32 32 2 7-3 7-6 1-6-1-38-38-3-5v-5l9-10z" fill="#7032D3"/>
</svg>
